<svg width="250.000000" height="50.000000" viewBox="0 0 250 50" fill="none" xmlns="http://www.w3.org/2000/svg" xmlns:xlink="http://www.w3.org/1999/xlink">
	<desc>
			Created with Pixso.
	</desc>
	<defs>
		<clipPath id="clip18_6">
			<rect id="zaimonline 1" rx="0.000000" width="249.000000" height="49.000000" transform="translate(0.500000 0.500000)" fill="white" fill-opacity="0"/>
		</clipPath>
	</defs>
	<rect id="zaimonline 1" rx="0.000000" width="249.000000" height="49.000000" transform="translate(0.500000 0.500000)" fill="#FFFFFF" fill-opacity="0"/>
	<g clip-path="url(#clip18_6)">
		<path id="Vector" d="M81 12L71.87 27.12L81.37 27.12L81.37 30.5L67.5 30.5L67.5 27.37L76.75 12.25L67.75 12.25L67.75 8.87L81 8.87L81 12Z" fill="#0D91A8" fill-opacity="1.000000" fill-rule="nonzero"/>
		<path id="Vector" d="M84.87 29.62C84 28.87 83.5 27.62 83.5 26C83.5 24.5 84 23.37 84.87 22.5C85.75 21.75 87.12 21.37 88.87 21.37L93 21.37L93.25 24.12L88.87 24.12C88.12 24.12 87.62 24.25 87.25 24.62C86.87 24.87 86.75 25.37 86.75 26C86.75 26.62 87 27.12 87.37 27.5C87.75 27.87 88.5 28 89.5 28C90.62 28 91.5 27.87 92 27.62C92.5 27.37 92.87 27 92.87 26.5L93.25 28.75C93.12 29.25 92.75 29.62 92.37 30C92 30.37 91.5 30.62 90.87 30.75C90.25 30.87 89.62 31 88.87 31C87.12 30.75 85.87 30.37 84.87 29.62ZM93 20.75C93 19.87 92.75 19.25 92.25 18.75C91.75 18.25 91 18 90.12 18C89.5 18 89 18.12 88.37 18.25C87.75 18.5 87.25 18.75 86.87 19L84.5 17C85.12 16.25 85.87 15.75 86.87 15.37C87.87 15 89 14.75 90.12 14.75C91.37 14.75 92.5 15 93.5 15.37C94.37 15.87 95.12 16.5 95.62 17.37C96.12 18.25 96.37 19.25 96.37 20.5L96.37 30.5L93.12 30.5L93.12 20.75L93 20.75Z" fill="#0D91A8" fill-opacity="1.000000" fill-rule="nonzero"/>
		<path id="Vector" d="M100.12 8.87L103.62 8.87L103.62 12.5L100.12 12.5L100.12 8.87ZM100.12 15.12L103.62 15.12L103.62 30.62L100.12 30.62L100.12 15.12Z" fill="#0D91A8" fill-opacity="1.000000" fill-rule="nonzero"/>
		<path id="Vector" d="M107.5 15.12L111 15.12L111 30.62L107.5 30.62L107.5 15.12ZM116.62 21.37C116.62 20.37 116.37 19.62 115.87 19C115.37 18.5 114.62 18.25 113.75 18.25C112.87 18.25 112.25 18.5 111.75 19C111.25 19.5 111 20.12 111 21L110.62 17.75C111.12 16.75 111.75 16.12 112.37 15.62C113.12 15.12 113.87 14.87 114.87 14.87C116 14.87 116.87 15.12 117.62 15.62C118.37 16.12 119 16.87 119.37 17.87C119.75 18.87 120 20 120 21.37L120 30.5L116.5 30.5L116.5 21.37L116.62 21.37ZM125.75 21.37C125.75 20.37 125.5 19.62 125 19C124.5 18.5 123.75 18.25 122.87 18.25C122 18.25 121.37 18.5 120.87 19C120.37 19.5 120.12 20.25 120.12 21.25L119.5 18C120 17 120.62 16.25 121.37 15.62C122.12 15.12 123 14.75 124 14.75C125.12 14.75 126.12 15 126.87 15.5C127.62 16 128.25 16.75 128.62 17.75C129 18.75 129.25 19.87 129.25 21.25L129.25 30.37L125.62 30.37L125.62 21.37L125.75 21.37Z" fill="#0D91A8" fill-opacity="1.000000" fill-rule="nonzero"/>
		<path id="Vector" d="M135.75 30C134.75 29.5 134 28.75 133.5 27.75C133 26.75 132.75 25.5 132.75 24.12L132.75 21.62C132.75 20.25 133 19 133.5 18C134 17 134.75 16.25 135.75 15.75C136.75 15.25 137.87 15 139.25 15C140.62 15 141.75 15.25 142.75 15.75C143.75 16.25 144.5 17 145 18C145.5 19 145.75 20.25 145.75 21.62L145.75 24.25C145.75 25.62 145.5 26.87 145 27.87C144.5 28.87 143.75 29.62 142.75 30.12C141.75 30.62 140.62 30.87 139.25 30.87C137.87 30.87 136.75 30.5 135.75 30ZM141.5 26.5C142 25.87 142.25 25.12 142.25 24.12L142.25 21.5C142.25 20.5 142 19.62 141.5 19.12C141 18.62 140.25 18.25 139.25 18.25C138.25 18.25 137.62 18.5 137 19.12C136.37 19.75 136.25 20.5 136.25 21.5L136.25 24.12C136.25 25.12 136.5 26 137 26.5C137.5 27 138.25 27.37 139.25 27.37C140.25 27.37 141 27.12 141.5 26.5Z" fill="#0D91A8" fill-opacity="1.000000" fill-rule="nonzero"/>
		<path id="Vector" d="M149.5 15.12L153.12 15.12L153.12 30.62L149.5 30.62L149.5 15.12ZM158.62 21.25C158.62 20.37 158.37 19.62 157.87 19.12C157.37 18.62 156.62 18.37 155.75 18.37C154.87 18.37 154.25 18.62 153.75 19.12C153.25 19.62 153 20.25 153 21.12L152.62 17.87C153.12 16.87 153.62 16.25 154.37 15.75C155.12 15.25 155.87 15 156.87 15C158.5 15 159.75 15.5 160.75 16.62C161.62 17.75 162.12 19.25 162.12 21.25L162.12 30.62L158.5 30.62L158.5 21.25L158.62 21.25Z" fill="#0D91A8" fill-opacity="1.000000" fill-rule="nonzero"/>
		<path id="Vector" d="M169.62 26C169.62 26.37 169.75 26.62 169.87 26.87C170.12 27.12 170.37 27.12 170.62 27.12L171.62 27.12L171.62 30.5L169.75 30.5C168.5 30.5 167.62 30.12 167 29.37C166.37 28.62 166 27.62 166 26.37L166 8.87L169.62 8.87L169.62 26Z" fill="#0D91A8" fill-opacity="1.000000" fill-rule="nonzero"/>
		<path id="Vector" d="M174.5 8.87L178 8.87L178 12.5L174.5 12.5L174.5 8.87ZM174.5 15.12L178 15.12L178 30.62L174.5 30.62L174.5 15.12Z" fill="#0D91A8" fill-opacity="1.000000" fill-rule="nonzero"/>
		<path id="Vector" d="M181.75 15.12L185.37 15.12L185.37 30.62L181.75 30.62L181.75 15.12ZM191 21.25C191 20.37 190.75 19.62 190.25 19.12C189.75 18.62 189 18.37 188.12 18.37C187.25 18.37 186.62 18.62 186.12 19.12C185.62 19.62 185.37 20.25 185.37 21.12L185 17.87C185.5 16.87 186 16.25 186.75 15.75C187.5 15.25 188.25 15 189.25 15C190.87 15 192.12 15.5 193.12 16.62C194 17.75 194.5 19.25 194.5 21.25L194.5 30.62L190.87 30.62L190.87 21.25L191 21.25Z" fill="#0D91A8" fill-opacity="1.000000" fill-rule="nonzero"/>
		<path id="Vector" d="M201.25 30C200.25 29.5 199.37 28.62 198.87 27.62C198.37 26.62 198 25.37 198 23.87L198 22.12C198 20.62 198.25 19.25 198.75 18.25C199.25 17.12 200 16.37 201 15.75C202 15.12 203.25 14.87 204.62 14.87C206 14.87 207.12 15.25 208 15.87C209 16.5 209.62 17.5 210.12 18.75C210.62 20 210.87 21.5 210.87 23.25L210.87 24.25L200.37 24.25L200.37 21.62L207.62 21.62L207.62 21.5C207.5 20.37 207.25 19.62 206.75 19C206.25 18.37 205.5 18.12 204.75 18.12C203.62 18.12 202.87 18.5 202.25 19.12C201.62 19.75 201.37 20.75 201.37 22L201.37 24C201.37 25.12 201.75 26.12 202.37 26.75C203 27.37 203.87 27.75 205 27.75C205.62 27.75 206.12 27.62 206.75 27.37C207.37 27.12 207.87 26.87 208.25 26.5L210.62 28.62C209.87 29.37 209 29.87 208 30.37C207 30.75 206 31 205 31C203.5 30.75 202.25 30.5 201.25 30Z" fill="#0D91A8" fill-opacity="1.000000" fill-rule="nonzero"/>
		<path id="Vector" d="M213.25 26.87L216.87 26.87L216.87 30.5L213.25 30.5L213.25 26.87Z" fill="#0D91A8" fill-opacity="1.000000" fill-rule="nonzero"/>
		<path id="Vector" d="M220.37 8.87L224 8.87L224 30.5L220.37 30.5L220.37 8.87ZM222 24.87L229.62 15.12L233.62 15.12L222.25 28.87L222 24.87ZM225.62 22.12L228.25 20.12L234.25 30.62L230.25 30.62L225.62 22.12Z" fill="#0D91A8" fill-opacity="1.000000" fill-rule="nonzero"/>
		<path id="Vector" d="M247.12 18.12L240 27.37L247.5 27.37L247.5 30.62L235.62 30.62L235.62 27.5L243 18.37L235.87 18.37L235.87 15.12L247.12 15.12L247.12 18.12Z" fill="#0D91A8" fill-opacity="1.000000" fill-rule="nonzero"/>
		<path id="Vector" d="M42.12 19.25C42.12 27.32 35.57 33.87 27.5 33.87C19.42 33.87 12.87 27.32 12.87 19.25C12.87 11.17 19.42 4.62 27.5 4.62C35.57 4.62 42.12 11.17 42.12 19.25Z" fill="#FF9F35" fill-opacity="1.000000" fill-rule="evenodd"/>
		<path id="Vector" d="M27.5 45.12C24 45.12 20.75 44.5 17.62 43.12C14.62 41.87 11.87 40.12 9.5 37.75C7.12 35.5 5.25 32.75 4 29.75C2.62 26.62 2 23.37 2 20C2 18.37 3.25 17.12 4.87 17.12C6.5 17.12 7.75 18.37 7.75 20C7.75 30.62 16.62 39.25 27.5 39.25C29.12 39.25 30.37 40.5 30.37 42.12C30.5 43.87 29.12 45.12 27.5 45.12Z" fill="#0D91A8" fill-opacity="1.000000" fill-rule="nonzero"/>
		<path id="Vector" d="M27.5 45.12C25.87 45.12 24.62 43.87 24.62 42.25C24.62 40.62 25.87 39.37 27.5 39.37C38.37 39.37 47.25 30.75 47.25 20.12C47.25 18.5 48.5 17.25 50.12 17.25C51.75 17.25 53 18.5 53 20.12C53 23.5 52.37 26.75 51 29.87C49.75 32.87 47.87 35.5 45.5 37.87C43.12 40.12 40.37 42 37.37 43.25C34.25 44.5 30.87 45.12 27.5 45.12Z" fill="#0D91A8" fill-opacity="1.000000" fill-rule="nonzero"/>
		<path id="Vector" d="M27.5 36.37C25.12 36.37 22.87 35.87 20.75 35C18.75 34.12 16.87 32.87 15.25 31.25C13.62 29.62 12.37 27.87 11.5 25.75C10.62 23.62 10.12 21.37 10.12 19C10.12 16.62 10.62 14.37 11.5 12.25C12.37 10.25 13.62 8.37 15.25 6.75C16.87 5.12 18.62 3.87 20.75 3C22.87 2.12 25.12 1.62 27.5 1.62C29.87 1.62 32.12 2.12 34.25 3C36.25 3.87 38.12 5.12 39.75 6.75C41.37 8.37 42.62 10.12 43.5 12.25C44.37 14.37 44.87 16.62 44.87 19C44.87 21.37 44.37 23.62 43.5 25.75C42.62 27.75 41.37 29.62 39.75 31.25C38.12 32.87 36.37 34.12 34.25 35C32.12 36 29.87 36.37 27.5 36.37ZM27.5 7.12C20.87 7.12 15.5 12.5 15.5 19.12C15.5 25.75 20.87 31.25 27.5 31.25C34.12 31.25 39.5 25.87 39.5 19.25C39.5 12.62 34.12 7.12 27.5 7.12Z" fill="#FFFC35" fill-opacity="1.000000" fill-rule="nonzero"/>
	</g>
</svg>
