<svg width="214.000000" height="37.000000" viewBox="0 0 214 37" fill="none" xmlns="http://www.w3.org/2000/svg" xmlns:xlink="http://www.w3.org/1999/xlink">
	<desc>
			Created with Pixso.
	</desc>
	<defs>
		<clipPath id="clip8_101">
			<rect id="credit-on 1" rx="0.000000" width="213.000000" height="36.000000" transform="translate(0.500000 0.500000)" fill="white" fill-opacity="0"/>
		</clipPath>
	</defs>
	<rect id="credit-on 1" rx="0.000000" width="213.000000" height="36.000000" transform="translate(0.500000 0.500000)" fill="#FFFFFF" fill-opacity="0"/>
	<g clip-path="url(#clip8_101)">
		<path id="Vector" d="M8.69 34.48C6.01 32.88 3.81 30.58 2.32 27.83C0.77 25.02 0 21.92 0 18.52C0 15.16 0.77 12.08 2.32 9.28C3.82 6.54 6.02 4.24 8.69 2.63C11.38 1 14.47 0.15 17.61 0.18C19.92 0.18 21.92 0.49 23.61 1.1C25.3 1.71 27.01 2.72 28.74 4.13C29.05 4.34 29.31 4.64 29.47 4.98C29.6 5.31 29.66 5.66 29.65 6.01C29.66 6.3 29.61 6.58 29.49 6.84C29.38 7.1 29.21 7.34 28.99 7.52C28.58 7.91 28.03 8.12 27.47 8.12C26.88 8.12 26.32 7.91 25.87 7.52C24.63 6.45 23.41 5.68 22.22 5.21C21.04 4.73 19.5 4.49 17.61 4.48C15.29 4.46 13.02 5.12 11.07 6.36C9.06 7.62 7.42 9.39 6.31 11.48C5.16 13.65 4.55 16.07 4.55 18.53C4.55 20.99 5.16 23.41 6.31 25.58C7.43 27.66 9.06 29.42 11.06 30.67C13.01 31.91 15.28 32.57 17.6 32.55C20.52 32.55 23.32 31.54 25.99 29.52C26.42 29.19 26.95 28.99 27.5 28.97C27.77 28.97 28.03 29.02 28.28 29.12C28.53 29.23 28.75 29.38 28.94 29.58C29.32 29.99 29.51 30.53 29.51 31.21C29.51 31.53 29.44 31.85 29.32 32.14C29.19 32.43 29.01 32.69 28.78 32.91C25.49 35.57 21.76 36.9 17.6 36.9C14.46 36.93 11.38 36.1 8.69 34.48Z" fill="#3CDC78" fill-opacity="1.000000" fill-rule="nonzero"/>
		<path id="Vector" d="M52.65 11.82C53.56 12.31 54.02 12.92 54.02 13.65C54.03 13.81 54.01 13.96 53.97 14.11C53.7 15.09 53.09 15.58 52.15 15.58C51.92 15.57 51.69 15.54 51.46 15.49C50.49 15.3 49.49 15.19 48.5 15.17C46.31 15.17 44.54 15.67 43.2 16.68C41.87 17.69 41.2 19.05 41.2 20.76L41.2 34.15C41.2 34.89 41.01 35.45 40.63 35.85C40.25 36.25 39.68 36.45 38.91 36.45C38.18 36.45 37.62 36.26 37.23 35.87C36.83 35.49 36.63 34.92 36.63 34.15L36.63 13.65C36.63 12.92 36.83 12.35 37.23 11.96C37.62 11.56 38.18 11.36 38.91 11.36C40.44 11.36 41.2 12.12 41.2 13.65L41.2 14.52C42.12 13.44 43.28 12.58 44.57 12C45.92 11.39 47.38 11.08 48.86 11.08C50.48 11.09 51.74 11.33 52.65 11.82Z" fill="#3CDC78" fill-opacity="1.000000" fill-rule="nonzero"/>
		<path id="Vector" d="M78.8 24.97C78.6 25.16 78.36 25.31 78.1 25.41C77.84 25.5 77.57 25.55 77.29 25.54L59.95 25.54C60.28 27.68 61.25 29.41 62.84 30.72C64.43 32.04 66.39 32.7 68.7 32.7C69.67 32.69 70.64 32.52 71.55 32.19C72.43 31.91 73.25 31.49 73.99 30.95C74.42 30.62 74.95 30.44 75.49 30.45C76.07 30.45 76.53 30.6 76.86 30.91C77.41 31.37 77.68 31.89 77.68 32.47C77.68 32.74 77.62 33.01 77.49 33.25C77.36 33.49 77.18 33.69 76.95 33.84C75.92 34.67 74.63 35.34 73.1 35.86C71.68 36.36 70.2 36.62 68.69 36.64C66.2 36.64 63.96 36.1 61.99 35.01C60.05 33.97 58.45 32.41 57.36 30.49C56.24 28.57 55.69 26.38 55.69 23.94C55.7 21.49 56.22 19.3 57.26 17.36C58.27 15.46 59.79 13.89 61.65 12.82C63.52 11.74 65.64 11.19 68.01 11.19C70.35 11.19 72.37 11.71 74.08 12.75C75.78 13.79 77.15 15.3 78 17.11C78.92 18.98 79.37 21.12 79.37 23.53C79.38 23.8 79.33 24.06 79.24 24.31C79.14 24.56 78.99 24.78 78.8 24.97ZM62.62 16.96C61.24 18.18 60.36 19.82 60 21.87L75.19 21.87C74.92 19.82 74.16 18.19 72.91 16.96C71.66 15.74 70.03 15.13 68.03 15.13C65.81 15.13 64 15.74 62.62 16.96Z" fill="#3CDC78" fill-opacity="1.000000" fill-rule="nonzero"/>
		<path id="Vector" d="M107.64 1.27C108.06 1.7 108.27 2.26 108.27 2.97L108.27 23.89C108.3 26.16 107.73 28.4 106.61 30.37C105.52 32.3 103.94 33.9 102.02 35C100.11 36.1 97.93 36.67 95.73 36.64C93.48 36.66 91.27 36.08 89.32 34.96C87.41 33.88 85.84 32.29 84.78 30.37C83.68 28.44 83.13 26.28 83.13 23.89C83.13 21.5 83.64 19.33 84.65 17.4C85.61 15.52 87.06 13.94 88.85 12.83C91.2 11.39 93.99 10.85 96.7 11.31C99.41 11.78 101.87 13.21 103.61 15.36L103.61 2.97C103.59 2.66 103.65 2.34 103.76 2.05C103.88 1.76 104.05 1.49 104.27 1.27C104.5 1.06 104.76 0.89 105.04 0.78C105.33 0.67 105.63 0.62 105.94 0.63C106.64 0.63 107.21 0.85 107.64 1.27ZM99.86 31.39C101.09 30.64 102.09 29.57 102.75 28.29C103.46 26.94 103.82 25.42 103.8 23.89C103.83 22.36 103.46 20.86 102.75 19.51C102.08 18.23 101.07 17.16 99.83 16.42C98.59 15.68 97.17 15.3 95.73 15.31C94.27 15.29 92.84 15.68 91.6 16.44C90.37 17.18 89.36 18.24 88.68 19.51C87.95 20.85 87.59 22.36 87.61 23.89C87.59 25.42 87.95 26.94 88.68 28.29C89.35 29.57 90.36 30.64 91.6 31.39C92.85 32.13 94.28 32.51 95.73 32.51C97.18 32.51 98.61 32.13 99.86 31.39Z" fill="#3CDC78" fill-opacity="1.000000" fill-rule="nonzero"/>
		<path id="Vector" d="M117.15 6.39C116.67 5.9 116.37 5.25 116.31 4.56C116.24 3.88 116.42 3.19 116.81 2.62C117.19 2.04 117.76 1.62 118.42 1.43C119.08 1.23 119.79 1.27 120.42 1.54C121.05 1.8 121.58 2.28 121.9 2.89C122.22 3.5 122.32 4.21 122.19 4.88C122.05 5.56 121.69 6.17 121.16 6.61C120.62 7.05 119.96 7.28 119.27 7.28C118.87 7.29 118.48 7.21 118.12 7.06C117.75 6.91 117.42 6.68 117.15 6.39ZM117.6 35.79C117.39 35.57 117.21 35.31 117.1 35.02C116.99 34.73 116.93 34.42 116.94 34.11L116.94 13.7C116.93 13.39 116.98 13.08 117.09 12.79C117.21 12.49 117.38 12.23 117.6 12.01C117.83 11.79 118.09 11.63 118.37 11.52C118.66 11.41 118.96 11.36 119.27 11.37C119.97 11.37 120.53 11.58 120.96 12.01C121.38 12.44 121.6 13 121.6 13.7L121.6 34.11C121.61 34.42 121.56 34.73 121.45 35.01C121.34 35.3 121.17 35.56 120.96 35.79C120.5 36.21 119.9 36.45 119.28 36.45C118.66 36.45 118.06 36.21 117.6 35.79Z" fill="#3CDC78" fill-opacity="1.000000" fill-rule="nonzero"/>
		<path id="Vector" d="M142.29 32.51C142.68 32.97 142.88 33.56 142.86 34.16C142.87 34.47 142.8 34.79 142.67 35.07C142.54 35.36 142.35 35.61 142.11 35.81C141.61 36.24 140.96 36.45 140.17 36.45L139.35 36.45C137.9 36.47 136.48 36.06 135.26 35.28C134.03 34.5 133.03 33.4 132.37 32.09C131.66 30.69 131.3 29.13 131.32 27.55L131.32 16.23L129.22 16.23C128.65 16.25 128.1 16.06 127.67 15.68C127.48 15.5 127.33 15.29 127.22 15.05C127.12 14.82 127.07 14.56 127.08 14.3C127.06 14.03 127.11 13.76 127.21 13.5C127.32 13.25 127.47 13.02 127.67 12.83C128.1 12.45 128.65 12.25 129.22 12.28L131.32 12.28L131.32 5.68C131.32 5.07 131.56 4.49 131.99 4.06C132.42 3.63 133 3.39 133.6 3.39C134.21 3.39 134.79 3.63 135.22 4.06C135.64 4.49 135.88 5.07 135.88 5.68L135.88 12.28L139.76 12.28C140.33 12.25 140.89 12.45 141.31 12.83C141.51 13.01 141.67 13.24 141.77 13.5C141.87 13.75 141.92 14.02 141.91 14.3C141.91 14.55 141.86 14.81 141.76 15.05C141.66 15.29 141.51 15.5 141.31 15.67C140.89 16.05 140.33 16.25 139.76 16.22L135.88 16.22L135.88 27.55C135.88 28.77 136.22 29.8 136.89 30.62C137.56 31.45 138.38 31.86 139.35 31.86L140.9 31.86C141.17 31.86 141.43 31.92 141.67 32.03C141.91 32.14 142.12 32.3 142.29 32.51Z" fill="#3CDC78" fill-opacity="1.000000" fill-rule="nonzero"/>
		<path id="Vector" d="M208.66 12.51C210.33 13.43 211.7 14.83 212.58 16.53C213.52 18.28 213.99 20.4 214 22.88L214 34.16C214 34.78 213.75 35.37 213.31 35.81C212.88 36.25 212.29 36.5 211.67 36.5C211.05 36.5 210.46 36.25 210.02 35.81C209.59 35.37 209.34 34.78 209.34 34.16L209.34 22.88C209.34 20.4 208.68 18.53 207.36 17.26C206.04 15.99 204.29 15.36 202.09 15.36C200.88 15.34 199.68 15.61 198.6 16.14C197.6 16.61 196.75 17.34 196.13 18.25C195.54 19.13 195.23 20.17 195.24 21.23L195.24 34.16C195.25 34.47 195.2 34.77 195.09 35.06C194.98 35.35 194.81 35.61 194.6 35.83C194.28 36.17 193.86 36.4 193.4 36.5C192.94 36.59 192.46 36.55 192.03 36.37C191.6 36.19 191.23 35.88 190.97 35.49C190.71 35.09 190.58 34.63 190.59 34.16L190.59 13.7C190.57 13.39 190.62 13.08 190.74 12.79C190.85 12.49 191.03 12.23 191.25 12.01C191.47 11.79 191.73 11.63 192.02 11.52C192.3 11.41 192.61 11.36 192.91 11.37C193.61 11.37 194.18 11.58 194.6 12.01C195.03 12.44 195.24 13 195.24 13.7L195.24 14.21C196.23 13.22 197.41 12.45 198.71 11.94C200.07 11.4 201.53 11.13 203 11.14C205.1 11.14 206.98 11.6 208.66 12.51Z" fill="#F0B446" fill-opacity="1.000000" fill-rule="nonzero"/>
		<path id="Vector" d="M179.31 11.59L179.25 11.64C178.95 11.95 178.73 12.33 178.63 12.75C178.53 13.17 178.55 13.61 178.69 14.02C179.52 16.47 179.65 19.11 179.07 21.64C178.49 24.16 177.21 26.47 175.4 28.31C170 33.76 161.12 33.75 155.74 28.28C153.51 26.02 152.12 23.06 151.8 19.89C151.48 16.73 152.25 13.55 153.99 10.88C155.72 8.22 158.3 6.23 161.32 5.25C164.33 4.27 167.58 4.36 170.54 5.5C170.94 5.66 171.38 5.7 171.8 5.61C172.23 5.53 172.62 5.33 172.93 5.03L172.98 4.97C173.26 4.71 173.46 4.38 173.57 4.02C173.68 3.66 173.7 3.27 173.63 2.9C173.55 2.53 173.39 2.18 173.14 1.89C172.9 1.6 172.59 1.37 172.23 1.24C168.96 -0.04 165.39 -0.34 161.94 0.35C158.5 1.05 155.33 2.73 152.8 5.18C145.6 12.16 145.29 23.77 152.12 31.11C154.99 34.22 158.84 36.23 163.02 36.82C167.2 37.41 171.45 36.54 175.07 34.36C178.68 32.17 181.44 28.81 182.88 24.82C184.32 20.84 184.36 16.48 182.98 12.47C182.86 12.11 182.65 11.79 182.37 11.54C182.09 11.29 181.75 11.11 181.39 11.02C181.02 10.93 180.64 10.94 180.28 11.04C179.91 11.14 179.58 11.33 179.31 11.59Z" fill="#F0B446" fill-opacity="1.000000" fill-rule="nonzero"/>
		<path id="Vector" d="M178.9 5.84C179.79 6.77 179.76 8.25 178.84 9.14C177.92 10.03 176.45 10 175.56 9.07C174.67 8.15 174.7 6.67 175.62 5.78C176.55 4.89 178.02 4.91 178.9 5.84Z" fill="#F0B446" fill-opacity="1.000000" fill-rule="evenodd"/>
	</g>
</svg>
